<?xml version="1.0" encoding="UTF-8"?>
<svg id="Capa_1" data-name="Capa 1" xmlns="http://www.w3.org/2000/svg" viewBox="0 0 199.53 202.11">
  <defs>
    <style>
      .cls-1 {
        fill: #ac5238;
      }

      .cls-2 {
        fill: #2b293f;
      }

      .cls-3 {
        fill: #ecc2aa;
      }
    </style>
  </defs>
  <path class="cls-2" d="m89.04,90.56h-49.13c-22.04,0-39.91-17.87-39.91-39.91V1.52h49.13c22.04,0,39.91,17.87,39.91,39.91v49.13Z"/>
  <path class="cls-2" d="m199.53,196.37h-49.13c-22.04,0-39.91-17.87-39.91-39.91v-49.13h49.13c22.04,0,39.91,17.87,39.91,39.91v49.13Z"/>
  <path class="cls-2" d="m2.04,202.11L.08,153.02c-.88-22.03,16.26-40.6,38.29-41.48l49.09-1.96,1.96,49.09c.88,22.03-16.26,40.6-38.29,41.48l-49.09,1.96Z"/>
  <path class="cls-2" d="m107.98,92.53l-1.96-49.09c-.88-22.03,16.26-40.6,38.29-41.48l49.09-1.96,1.96,49.09c.88,22.03-16.26,40.6-38.29,41.48l-49.09,1.96Z"/>
  <path class="cls-3" d="m173.51,170.18h-23.4c-22.04,0-39.91-17.87-39.91-39.91v-23.4h23.4c22.04,0,39.91,17.87,39.91,39.91v23.4Z"/>
  <path class="cls-3" d="m173.51,27.34v23.4c0,22.04-17.87,39.91-39.91,39.91h-23.4v-23.4c0-22.04,17.87-39.91,39.91-39.91h23.4Z"/>
  <path class="cls-3" d="m26.33,27.34h23.4c22.04,0,39.91,17.87,39.91,39.91v23.4h-23.4c-22.04,0-39.91-17.87-39.91-39.91v-23.4Z"/>
  <path class="cls-3" d="m26.33,170.18v-23.4c0-22.04,17.87-39.91,39.91-39.91h23.4v23.4c0,22.04-17.87,39.91-39.91,39.91h-23.4Z"/>
  <circle class="cls-1" cx="99.43" cy="99.16" r="28.19"/>
</svg>